<?xml version="1.0" encoding="UTF-8" standalone="no"?>
<svg
   width="60mm"
   height="117.5mm"
   viewBox="0 0 60 117.5"
   version="1.1"
   id="svg1"
   sodipodi:docname="7segdrawing_complete.svg"
   inkscape:version="1.4.2 (f4327f4, 2025-05-13)"
   xmlns:inkscape="http://www.inkscape.org/namespaces/inkscape"
   xmlns:sodipodi="http://sodipodi.sourceforge.net/DTD/sodipodi-0.dtd"
   xmlns:xlink="http://www.w3.org/1999/xlink"
   xmlns="http://www.w3.org/2000/svg"
   xmlns:svg="http://www.w3.org/2000/svg">
  <sodipodi:namedview
     id="namedview1"
     pagecolor="#ffffff"
     bordercolor="#000000"
     borderopacity="0.25"
     inkscape:showpageshadow="2"
     inkscape:pageopacity="0.0"
     inkscape:pagecheckerboard="0"
     inkscape:deskcolor="#d1d1d1"
     inkscape:document-units="mm"
     inkscape:zoom="2"
     inkscape:cx="-26.25"
     inkscape:cy="252.25"
     inkscape:window-width="2560"
     inkscape:window-height="1369"
     inkscape:window-x="2552"
     inkscape:window-y="-8"
     inkscape:window-maximized="1"
     inkscape:current-layer="FrameSegment_Support"
     showgrid="true">
    <inkscape:grid
       id="grid1"
       units="mm"
       originx="9.3998883e-16"
       originy="-1.363637e-08"
       spacingx="0.99999998"
       spacingy="1"
       empcolor="#0099e5"
       empopacity="0.30196078"
       color="#0099e5"
       opacity="0.14901961"
       empspacing="5"
       enabled="true"
       visible="true" />
  </sodipodi:namedview>
  <defs
     id="defs1">
    <linearGradient
       id="linearGradient50"
       inkscape:collect="always">
      <stop
         style="stop-color:#0f0f0f;stop-opacity:1;"
         offset="0"
         id="stop51" />
      <stop
         style="stop-color:#0d0d0d;stop-opacity:1;"
         offset="0.52137935"
         id="stop54" />
      <stop
         style="stop-color:#0d0d0d;stop-opacity:1;"
         offset="0.7489655"
         id="stop53" />
      <stop
         style="stop-color:#0f0f0f;stop-opacity:1;"
         offset="1"
         id="stop52" />
    </linearGradient>
    <inkscape:path-effect
       effect="fillet_chamfer"
       id="path-effect4"
       is_visible="true"
       lpeversion="1"
       nodesatellites_param="F,0,0,1,0,4.4999999,0,1 @ F,0,0,1,0,4.4999999,0,1 @ F,0,0,1,0,4.4999999,0,1 @ F,0,0,1,0,4.4999999,0,1"
       radius="4.5"
       unit="mm"
       method="auto"
       mode="F"
       chamfer_steps="1"
       flexible="false"
       use_knot_distance="true"
       apply_no_radius="true"
       apply_with_radius="true"
       only_selected="false"
       hide_knots="false" />
    <inkscape:path-effect
       effect="fillet_chamfer"
       id="path-effect3"
       is_visible="true"
       lpeversion="1"
       nodesatellites_param="F,0,0,1,0,1.5,0,1 @ F,0,0,1,0,1.5,0,1 @ F,0,0,1,0,1.5,0,1 @ F,0,0,1,0,1.5,0,1"
       radius="1.5"
       unit="mm"
       method="auto"
       mode="F"
       chamfer_steps="1"
       flexible="false"
       use_knot_distance="true"
       apply_no_radius="true"
       apply_with_radius="true"
       only_selected="false"
       hide_knots="false" />
    <inkscape:path-effect
       effect="offset"
       id="path-effect2"
       is_visible="true"
       lpeversion="1.3"
       linejoin_type="miter"
       unit="mm"
       offset="-4.5"
       miter_limit="4"
       attempt_force_join="false"
       update_on_knot_move="true" />
    <inkscape:path-effect
       effect="offset"
       id="path-effect1"
       is_visible="true"
       lpeversion="1.3"
       linejoin_type="miter"
       unit="mm"
       offset="-1"
       miter_limit="4"
       attempt_force_join="false"
       update_on_knot_move="true" />
    <inkscape:path-effect
       effect="offset"
       id="path-effect1-4"
       is_visible="true"
       lpeversion="1.3"
       linejoin_type="miter"
       unit="mm"
       offset="-0.928712"
       miter_limit="4"
       attempt_force_join="false"
       update_on_knot_move="true" />
    <linearGradient
       inkscape:collect="always"
       xlink:href="#linearGradient50"
       id="linearGradient52"
       x1="-105.73699"
       y1="-38.566408"
       x2="-104.7219"
       y2="-38.566408"
       gradientUnits="userSpaceOnUse" />
    <linearGradient
       inkscape:collect="always"
       xlink:href="#linearGradient50"
       id="linearGradient54"
       gradientUnits="userSpaceOnUse"
       x1="-105.73699"
       y1="-38.566408"
       x2="-104.7219"
       y2="-38.566408"
       gradientTransform="translate(221.25598,77.132818)" />
    <linearGradient
       inkscape:collect="always"
       xlink:href="#linearGradient50"
       id="linearGradient1"
       gradientUnits="userSpaceOnUse"
       x1="-105.73699"
       y1="-38.566408"
       x2="-104.7219"
       y2="-38.566408" />
    <linearGradient
       inkscape:collect="always"
       xlink:href="#linearGradient50"
       id="linearGradient2"
       gradientUnits="userSpaceOnUse"
       gradientTransform="translate(220.24089,77.132816)"
       x1="-105.73699"
       y1="-38.566408"
       x2="-104.7219"
       y2="-38.566408" />
    <linearGradient
       inkscape:collect="always"
       xlink:href="#linearGradient50"
       id="linearGradient21"
       gradientUnits="userSpaceOnUse"
       x1="-105.73699"
       y1="-38.566408"
       x2="-104.7219"
       y2="-38.566408" />
    <linearGradient
       inkscape:collect="always"
       xlink:href="#linearGradient50"
       id="linearGradient22"
       gradientUnits="userSpaceOnUse"
       gradientTransform="translate(220.24089,77.132816)"
       x1="-105.73699"
       y1="-38.566408"
       x2="-104.7219"
       y2="-38.566408" />
    <linearGradient
       inkscape:collect="always"
       xlink:href="#linearGradient50"
       id="linearGradient23"
       gradientUnits="userSpaceOnUse"
       x1="-105.73699"
       y1="-38.566408"
       x2="-104.7219"
       y2="-38.566408" />
    <linearGradient
       inkscape:collect="always"
       xlink:href="#linearGradient50"
       id="linearGradient24"
       gradientUnits="userSpaceOnUse"
       gradientTransform="translate(221.25598,77.132818)"
       x1="-105.73699"
       y1="-38.566408"
       x2="-104.7219"
       y2="-38.566408" />
  </defs>
  <g
     inkscape:groupmode="layer"
     id="Frame"
     inkscape:label="Frame"
     style="display:inline">
    <path
       id="knob"
       style="display:inline;stroke-width:0"
       d="M 39.473229,1.363637e-8 H 20.527247 C 19.681284,1.363637e-8 19.000238,0.48240823 19.000238,1.081632 V 15.918369 C 19.000238,16.517593 19.681284,17 20.527247,17 h 18.945982 c 0.845963,0 1.527009,-0.482407 1.527009,-1.081631 V 1.081632 C 41.000238,0.48240823 40.319192,1.3636369e-8 39.473229,1.363637e-8 Z" />
    <path
       id="spring_support"
       style="display:inline;fill:#070707;fill-opacity:1;stroke-width:0"
       d="m 42.945234,11 h -25.89 v 6 h 25.89 z" />
    <path
       id="spring"
       style="display:inline;stroke-width:0"
       d="M 48.508443,10 H 11.493021 v 3.344623 h 37.015422 z" />
    <path
       id="frame"
       d="M 4.4999999,17 H 55.5 A 4.4999999,4.4999999 45 0 1 60,21.5 V 113 a 4.4999999,4.4999999 135 0 1 -4.5,4.5 H 4.4999999 A 4.4999999,4.4999999 45 0 1 0,113 V 21.5 A 4.4999999,4.4999999 135 0 1 4.4999999,17 Z"
       style="fill:#020202;fill-opacity:1;stroke:none;stroke-width:0;stroke-dasharray:none"
       inkscape:label="frame" />
    <path
       id="frame interior"
       d="m 4.2350265,23.026301 v 88.480469 a 1.5,1.5 0 0 0 1.5,1.5 H 53.715495 a 1.5,1.5 0 0 0 1.5,-1.5 V 23.026301 a 1.5,1.5 0 0 0 -1.5,-1.5 H 5.7350265 a 1.5,1.5 0 0 0 -1.5,1.5 z"
       style="display:inline;fill:#121212;fill-opacity:1;stroke:none;stroke-width:0;stroke-dasharray:none"
       inkscape:label="frame interior" />
    <path
       id="knob indent 1"
       style="fill:#0c0c0c;stroke-width:0"
       inkscape:label="knob indent 1"
       d="m 27,0.99999976 c 0.554,0 1,0.44600004 1,1.00000004 v 7 c 0,0.554 -0.446,1 -1,1 -0.554,0 -1,-0.446 -1,-1 v -7 c 0,-0.554 0.446,-1.00000004 1,-1.00000004 z" />
    <path
       id="knob indent 2"
       style="display:inline;fill:#0a0a0a;stroke-width:0"
       inkscape:label="knob indent 2"
       d="m 23.999762,0.99927992 c 0.554,0 1,0.44599998 1,0.99999998 v 7 c 0,0.554 -0.446,1 -1,1 -0.554,0 -1,-0.446 -1,-1 v -7 c 0,-0.554 0.446,-0.99999998 1,-0.99999998 z" />
    <path
       id="knob indent 3"
       style="display:inline;fill:#0a0a0a;stroke-width:0"
       inkscape:label="knob indent 3"
       d="m 20.999523,0.99999988 c 0.554,0 1,0.44600002 1,1.00000002 v 7 c 0,0.554 -0.446,1 -1,1 -0.554,0 -1,-0.446 -1,-1 v -7 c 0,-0.554 0.446,-1.00000002 1,-1.00000002 z" />
    <path
       id="knob indent 4"
       style="display:inline;fill:#0f0f0f;stroke-width:0"
       inkscape:label="knob indent 4"
       d="m 30.000238,0.99927992 c 0.554,0 1,0.44599998 1,0.99999998 v 7 c 0,0.554 -0.446,1 -1,1 -0.554,0 -1,-0.446 -1,-1 v -7 c 0,-0.554 0.446,-0.99999998 1,-0.99999998 z" />
    <path
       id="knob indent 5"
       style="display:inline;fill:#090909;stroke-width:0"
       inkscape:label="knob indent 5"
       d="m 33,0.9999997 c 0.554,0 1,0.446 1,1 v 7 c 0,0.554 -0.446,1 -1,1 -0.554,0 -1,-0.446 -1,-1 v -7 c 0,-0.554 0.446,-1 1,-1 z" />
    <path
       id="knob indent 6"
       style="display:inline;fill:#080808;stroke-width:0"
       inkscape:label="knob indent 6"
       d="m 35.999763,0.99927992 c 0.554,0 1,0.44599998 1,0.99999998 v 7 c 0,0.554 -0.446,1 -1,1 -0.554,0 -1,-0.446 -1,-1 v -7 c 0,-0.554 0.446,-0.99999998 1,-0.99999998 z" />
    <path
       id="knob indent 7"
       style="display:inline;fill:#080808;stroke-width:0"
       inkscape:label="knob indent 7"
       d="m 38.999527,0.99927992 c 0.554,0 1,0.44599998 1,0.99999998 v 7 c 0,0.554 -0.446,1 -1,1 -0.554,0 -1,-0.446 -1,-1 v -7 c 0,-0.554 0.446,-0.99999998 1,-0.99999998 z" />
  </g>
  <g
     inkscape:groupmode="layer"
     id="FrameSegment_Support"
     inkscape:label="Gears and Supports"
     style="display:inline">
    <g
       id="Frame_Hinge_Supports"
       style="display:inline">
      <path
         d="m 41.000598,103.99985 v 9.50123 h 3.999756 v -9.50123 z"
         style="display:inline;fill:#0f0f0f;stroke-width:0"
         id="Frame_Hinge_Supports01" />
      <path
         d="m 13.629659,106.00025 v 5.50095 h 1.370459 v -5.50095 z"
         style="fill:#0d0d0d;stroke-width:0"
         id="Frame_Hinge_Supports02" />
      <path
         d="m 45.000871,106.00025 v 5.50095 h 1.370459 v -5.50095 z"
         style="fill:#0d0d0d;stroke-width:0"
         id="Frame_Hinge_Supports03" />
      <path
         d="m 15.000118,103.99985 v 9.50123 h 3.999756 v -9.50123 z"
         style="display:inline;fill:#0f0f0f;stroke-width:0"
         id="Frame_Hinge_Supports04" />
      <path
         d="m 3.2494141,100.74992 v 4.00028 h 1.9998779 5.501473 1.999878 v -4.00028 z"
         style="display:inline;fill:#0f0f0f;stroke-width:0"
         id="Frame_Hinge_Supports05" />
      <path
         d="m 5.249292,73.378984 v 1.370459 h 5.501473 v -1.370459 z"
         style="fill:#0d0d0d;stroke-width:0"
         id="Frame_Hinge_Supports06" />
      <path
         d="m 5.249292,104.7502 v 1.37097 h 5.501473 v -1.37097 z"
         style="fill:#0d0d0d;stroke-width:0"
         id="Frame_Hinge_Supports07" />
      <path
         d="m 3.2494141,74.749443 v 4.000272 h 9.5012289 v -4.000272 z"
         style="display:inline;fill:#0f0f0f;stroke-width:0"
         id="Frame_Hinge_Supports08" />
      <path
         d="m 47.498393,55.750085 v 4.000273 h 1.999878 5.500956 2.000395 v -4.000273 z"
         style="display:inline;fill:#0f0f0f;stroke-width:0"
         id="Frame_Hinge_Supports09" />
      <path
         d="m 49.498271,28.379146 v 1.370459 h 5.500956 v -1.370459 z"
         style="display:inline;fill:#0d0d0d;stroke-width:0"
         id="Frame_Hinge_Supports10" />
      <path
         d="m 49.498271,59.750358 v 1.370976 h 5.500956 v -1.370976 z"
         style="display:inline;fill:#0d0d0d;stroke-width:0"
         id="Frame_Hinge_Supports11" />
      <path
         d="m 47.498393,29.749605 v 4.000273 h 9.501229 v -4.000273 z"
         style="display:inline;fill:#0f0f0f;stroke-width:0"
         id="Frame_Hinge_Supports12" />
      <path
         d="m 3.5010783,55.750085 v 4.000273 h 1.9998779 5.5009558 2.000395 v -4.000273 z"
         style="display:inline;fill:#0f0f0f;stroke-width:0"
         id="Frame_Hinge_Supports13" />
      <path
         d="m 5.5009562,28.379146 v 1.370459 h 5.5009558 v -1.370459 z"
         style="display:inline;fill:#0d0d0d;stroke-width:0"
         id="Frame_Hinge_Supports14" />
      <path
         d="m 5.5009562,59.750358 v 1.370976 h 5.5009558 v -1.370976 z"
         style="display:inline;fill:#0d0d0d;stroke-width:0"
         id="Frame_Hinge_Supports15" />
      <path
         d="m 3.5010783,29.749605 v 4.000273 h 9.5012287 v -4.000273 z"
         style="display:inline;fill:#0f0f0f;stroke-width:0"
         id="Frame_Hinge_Supports16" />
      <path
         d="m 46.998165,100.74992 v 4.00028 h 2.000395 5.500956 1.999878 v -4.00028 z"
         style="display:inline;fill:#0f0f0f;stroke-width:0"
         id="Frame_Hinge_Supports17" />
      <path
         d="m 48.99856,73.378984 v 1.370459 h 5.500956 v -1.370459 z"
         style="display:inline;fill:#0d0d0d;stroke-width:0"
         id="Frame_Hinge_Supports18" />
      <path
         d="m 48.99856,104.7502 v 1.37097 h 5.500956 v -1.37097 z"
         style="display:inline;fill:#0d0d0d;stroke-width:0"
         id="Frame_Hinge_Supports19" />
      <path
         d="m 46.998165,74.749443 v 4.000272 h 9.501229 v -4.000272 z"
         style="display:inline;fill:#0f0f0f;stroke-width:0"
         id="Frame_Hinge_Supports20" />
      <path
         d="m 41.000598,20.001363 v 9.501229 h 3.999756 v -9.501229 z"
         style="display:inline;fill:#0f0f0f;stroke-width:0"
         id="Frame_Hinge_Supports21" />
      <path
         d="m 13.629659,22.001241 v 5.501473 h 1.370459 v -5.501473 z"
         style="display:inline;fill:#0d0d0d;stroke-width:0"
         id="Frame_Hinge_Supports22" />
      <path
         d="m 45.000871,22.001241 v 5.501473 h 1.370459 v -5.501473 z"
         style="display:inline;fill:#0d0d0d;stroke-width:0"
         id="Frame_Hinge_Supports23" />
      <path
         d="m 15.000118,20.001363 v 9.501229 h 3.999756 v -9.501229 z"
         style="display:inline;fill:#0f0f0f;stroke-width:0"
         id="Frame_Hinge_Supports24" />
    </g>
    <g
       id="FrameSegmentGGear"
       transform="matrix(1,0,0,-1,-5e-7,169.74946)">
      <rect
         style="fill:#0f0f0f;fill-opacity:1;stroke-width:0"
         id="FrameSegmentGGear01"
         width="4.9999981"
         height="6.2479129"
         x="28"
         y="97.752083" />
      <rect
         style="fill:#0d0d0d;fill-opacity:1;stroke-width:0"
         id="FrameSegmentGGear02"
         width="1.3708115"
         height="6.2479157"
         x="33"
         y="97.752083"
         ry="0"
         rx="0" />
      <rect
         style="fill:#141414;fill-opacity:1;stroke-width:0"
         id="FrameSegmentGGear03"
         width="6.0000014"
         height="0.75045675"
         x="27"
         y="105" />
      <rect
         style="fill:#0d0d0d;fill-opacity:1;stroke-width:0"
         id="FrameSegmentGGear04"
         width="1"
         height="7.2479157"
         x="27"
         y="97.752083" />
      <rect
         style="fill:#0d0d0d;fill-opacity:1;stroke-width:0"
         id="FrameSegmentGGear05"
         width="5.0000005"
         height="0.99999863"
         x="27.999998"
         y="104" />
    </g>
    <g
       id="SegmentFGear"
       transform="matrix(0,-1,-1,0,132.7219,79.566405)"
       style="display:inline">
      <rect
         style="fill:#0d0d0d;fill-opacity:1;stroke-width:0"
         id="FrameSegmentFGear01"
         width="1.3708115"
         height="4.9999962"
         x="40.620575"
         y="99.721901"
         ry="0"
         rx="0" />
      <rect
         style="fill:#0d0d0d;fill-opacity:1;stroke-width:0"
         id="FrameSegmentFGear2"
         width="0.77112103"
         height="5"
         x="35.740845"
         y="-104.7219"
         transform="scale(1,-1)" />
      <rect
         style="display:inline;fill:#0f0f0f;fill-opacity:1;stroke-width:0"
         id="FrameSegmentFGear03"
         width="4.1088805"
         height="4.9999981"
         x="36.511967"
         y="99.721901" />
      <rect
         style="fill:#0f0f0f;fill-opacity:1;stroke-width:0"
         id="FrameSegmentFGear04"
         width="3.9999971"
         height="10"
         x="-120.53407"
         y="-40.62085"
         transform="matrix(0,-1,-1,0,0,0)" />
      <rect
         style="display:inline;fill:#0f0f0f;fill-opacity:1;stroke-width:0"
         id="FrameSegmentFGear05"
         width="9.7819872"
         height="4.1088839"
         x="-115.51898"
         y="-40.62085"
         transform="matrix(0,-1,-1,0,0,0)" />
      <rect
         style="display:inline;fill:url(#linearGradient23);fill-opacity:1;stroke-width:0"
         id="FrameSegmentFGear6"
         width="1.0150906"
         height="4.1088839"
         x="-105.73699"
         y="-40.62085"
         transform="matrix(0,-1,-1,0,0,0)" />
      <rect
         style="display:inline;fill:url(#linearGradient24);fill-opacity:1;stroke-width:0"
         id="FrameSegmentFGear07"
         width="1.0150906"
         height="4.1088839"
         x="115.51898"
         y="36.511967"
         transform="matrix(0,1,1,0,0,0)" />
      <rect
         style="display:inline;fill:#141414;fill-opacity:1;stroke-width:0"
         id="FrameSegmentFGear08"
         width="1.0004793"
         height="10"
         x="-121.53455"
         y="-40.62085"
         transform="matrix(0,-1,-1,0,0,0)" />
    </g>
    <g
       id="FrameSegmentEGear"
       transform="matrix(0,-1,-1,0,132.7219,121.0625)"
       style="display:inline">
      <rect
         style="fill:#0d0d0d;fill-opacity:1;stroke-width:0"
         id="FrameSegmentEGear01"
         width="1.3708115"
         height="4.9999962"
         x="40.620575"
         y="99.721901"
         ry="0"
         rx="0" />
      <rect
         style="fill:#0d0d0d;fill-opacity:1;stroke-width:0"
         id="FrameSegmentEGear02"
         width="0.77112103"
         height="5"
         x="35.740845"
         y="-104.7219"
         transform="scale(1,-1)" />
      <rect
         style="display:inline;fill:#0f0f0f;fill-opacity:1;stroke-width:0"
         id="FrameSegmentEGear03"
         width="4.1088805"
         height="4.9999981"
         x="36.511967"
         y="99.721901" />
      <rect
         style="fill:#0f0f0f;fill-opacity:1;stroke-width:0"
         id="FrameSegmentEGear04"
         width="3.9999971"
         height="10"
         x="-120.53407"
         y="-40.62085"
         transform="matrix(0,-1,-1,0,0,0)" />
      <rect
         style="display:inline;fill:#0f0f0f;fill-opacity:1;stroke-width:0"
         id="FrameSegmentEGear05"
         width="9.7819872"
         height="4.1088839"
         x="-115.51898"
         y="-40.62085"
         transform="matrix(0,-1,-1,0,0,0)" />
      <rect
         style="display:inline;fill:url(#linearGradient52);fill-opacity:1;stroke-width:0"
         id="FrameSegmentEGear06"
         width="1.0150906"
         height="4.1088839"
         x="-105.73699"
         y="-40.62085"
         transform="matrix(0,-1,-1,0,0,0)" />
      <rect
         style="display:inline;fill:url(#linearGradient54);fill-opacity:1;stroke-width:0"
         id="FrameSegmentEGear07"
         width="1.0150906"
         height="4.1088839"
         x="115.51898"
         y="36.511967"
         transform="matrix(0,1,1,0,0,0)" />
      <rect
         style="display:inline;fill:#141414;fill-opacity:1;stroke-width:0"
         id="FrameSegmentEGear08"
         width="1.0004793"
         height="10"
         x="-121.53455"
         y="-40.62085"
         transform="matrix(0,-1,-1,0,0,0)" />
    </g>
    <g
       id="FrameSegmentDGear"
       style="display:inline">
      <rect
         style="fill:#0f0f0f;fill-opacity:1;stroke-width:0"
         id="FrameSegmentDGear01"
         width="4.9999981"
         height="6.2479129"
         x="28"
         y="97.752083" />
      <rect
         style="fill:#0d0d0d;fill-opacity:1;stroke-width:0"
         id="FrameSegmentDGear02"
         width="1.3708115"
         height="6.2479157"
         x="33"
         y="97.752083"
         ry="0"
         rx="0" />
      <rect
         style="fill:#141414;fill-opacity:1;stroke-width:0"
         id="FrameSegmentDGear03"
         width="6.0000014"
         height="0.75045675"
         x="27"
         y="105" />
      <rect
         style="fill:#0d0d0d;fill-opacity:1;stroke-width:0"
         id="FrameSegmentDGear04"
         width="1"
         height="7.2479157"
         x="27"
         y="97.752083" />
      <rect
         style="fill:#0d0d0d;fill-opacity:1;stroke-width:0"
         id="FrameSegmentDGear05"
         width="5.0000005"
         height="0.99999863"
         x="27.999998"
         y="104" />
    </g>
    <g
       id="FrameSegmentCGear"
       transform="matrix(0,1,1,0,-71.721893,52.694017)"
       style="display:inline">
      <rect
         style="fill:#0d0d0d;fill-opacity:1;stroke-width:0"
         id="FrameSegmentCGear01"
         width="1.3708115"
         height="4.9999962"
         x="40.620575"
         y="99.721901"
         ry="0"
         rx="0" />
      <rect
         style="fill:#0d0d0d;fill-opacity:1;stroke-width:0"
         id="FrameSegmentCGear02"
         width="0.77112103"
         height="5"
         x="35.740845"
         y="-104.7219"
         transform="scale(1,-1)" />
      <rect
         style="display:inline;fill:#0f0f0f;fill-opacity:1;stroke-width:0"
         id="FrameSegmentCGear03"
         width="4.1088805"
         height="4.9999981"
         x="36.511967"
         y="99.721901" />
      <rect
         style="fill:#0f0f0f;fill-opacity:1;stroke-width:0"
         id="FrameSegmentCGear04"
         width="3.9999971"
         height="10"
         x="-119.51898"
         y="-40.62085"
         transform="matrix(0,-1,-1,0,0,0)" />
      <rect
         style="display:inline;fill:#0f0f0f;fill-opacity:1;stroke-width:0"
         id="FrameSegmentCGear05"
         width="9.7819872"
         height="4.1088839"
         x="-115.51898"
         y="-40.62085"
         transform="matrix(0,-1,-1,0,0,0)" />
      <rect
         style="display:inline;fill:url(#linearGradient1);fill-opacity:1;stroke-width:0"
         id="FrameSegmentCGear06"
         width="1.0150906"
         height="4.1088839"
         x="-105.73699"
         y="-40.62085"
         transform="matrix(0,-1,-1,0,0,0)" />
      <rect
         style="display:inline;fill:url(#linearGradient2);fill-opacity:1;stroke-width:0"
         id="FrameSegmentCGear07"
         width="1.0150906"
         height="4.1088839"
         x="114.50389"
         y="36.511967"
         transform="matrix(0,1,1,0,0,0)" />
      <rect
         style="display:inline;fill:#141414;fill-opacity:1;stroke-width:0"
         id="FrameSegmentCGear08"
         width="1.0004793"
         height="10"
         x="-120.51946"
         y="-40.62085"
         transform="matrix(0,-1,-1,0,0,0)" />
    </g>
    <g
       id="FrameSegmentBGear"
       transform="matrix(0,1,1,0,-71.721893,11.197924)"
       style="display:inline">
      <rect
         style="fill:#0d0d0d;fill-opacity:1;stroke-width:0"
         id="FrameSegmentBGear01"
         width="1.3708115"
         height="4.9999962"
         x="40.620575"
         y="99.721901"
         ry="0"
         rx="0" />
      <rect
         style="fill:#0d0d0d;fill-opacity:1;stroke-width:0"
         id="FrameSegmentBGear02"
         width="0.77112103"
         height="5"
         x="35.740845"
         y="-104.7219"
         transform="scale(1,-1)" />
      <rect
         style="display:inline;fill:#0f0f0f;fill-opacity:1;stroke-width:0"
         id="FrameSegmentBGear03"
         width="4.1088805"
         height="4.9999981"
         x="36.511967"
         y="99.721901" />
      <rect
         style="fill:#0f0f0f;fill-opacity:1;stroke-width:0"
         id="FrameSegmentBGear04"
         width="3.9999971"
         height="10"
         x="-119.51898"
         y="-40.62085"
         transform="matrix(0,-1,-1,0,0,0)" />
      <rect
         style="display:inline;fill:#0f0f0f;fill-opacity:1;stroke-width:0"
         id="FrameSegmentBGear05"
         width="9.7819872"
         height="4.1088839"
         x="-115.51898"
         y="-40.62085"
         transform="matrix(0,-1,-1,0,0,0)" />
      <rect
         style="display:inline;fill:url(#linearGradient21);fill-opacity:1;stroke-width:0"
         id="FrameSegmentBGear06"
         width="1.0150906"
         height="4.1088839"
         x="-105.73699"
         y="-40.62085"
         transform="matrix(0,-1,-1,0,0,0)" />
      <rect
         style="display:inline;fill:url(#linearGradient22);fill-opacity:1;stroke-width:0"
         id="FrameSegmentBGear07"
         width="1.0150906"
         height="4.1088839"
         x="114.50389"
         y="36.511967"
         transform="matrix(0,1,1,0,0,0)" />
      <rect
         style="display:inline;fill:#141414;fill-opacity:1;stroke-width:0"
         id="FrameSegmentBGear08"
         width="1.0004793"
         height="10"
         x="-120.51946"
         y="-40.62085"
         transform="matrix(0,-1,-1,0,0,0)" />
    </g>
    <g
       id="FrameSegmentAGear"
       transform="rotate(180,30.342703,67)"
       style="display:inline">
      <rect
         style="fill:#0f0f0f;fill-opacity:1;stroke-width:0"
         id="FrameSegmentAGear01"
         width="4.9999981"
         height="6.2479129"
         x="28"
         y="97.752083" />
      <rect
         style="fill:#0d0d0d;fill-opacity:1;stroke-width:0"
         id="FrameSegmentAGear02"
         width="1.3708115"
         height="6.2479157"
         x="33"
         y="97.752083"
         ry="0"
         rx="0" />
      <rect
         style="fill:#141414;fill-opacity:1;stroke-width:0"
         id="FrameSegmentAGear03"
         width="6.0000014"
         height="0.75045675"
         x="27"
         y="105" />
      <rect
         style="fill:#0d0d0d;fill-opacity:1;stroke-width:0"
         id="FrameSegmentAGear04"
         width="1"
         height="7.2479157"
         x="27"
         y="97.752083" />
      <rect
         style="fill:#0d0d0d;fill-opacity:1;stroke-width:0"
         id="FrameSegmentAGear05"
         width="5.0000005"
         height="0.99999863"
         x="27.999998"
         y="104" />
    </g>
  </g>
  <g
     inkscape:groupmode="layer"
     id="Segment G"
     inkscape:label="Segment G"
     style="display:none">
    <g
       inkscape:groupmode="layer"
       id="Segment G Closed"
       inkscape:label="Segment G Closed"
       style="display:none">
      <path
         id="segment g0"
         style="display:inline;fill:#000000;stroke-width:0"
         d="m 17.5,61.75 h 25 v 11 h -25 z"
         inkscape:label="segment g0" />
      <path
         id="segment g1"
         style="fill:#f2f2f2;stroke-width:0"
         d="m 18.5,62.75 v 8.980468 H 41.480468 V 62.75 Z"
         inkscape:label="segment g1" />
    </g>
    <g
       inkscape:groupmode="layer"
       id="Segment G Open"
       inkscape:label="Segment G Open">
      <path
         id="segment g2"
         style="fill:#0d0d0d;stroke:#080808;stroke-width:0"
         inkscape:label="segment g2"
         d="m 17.5,52.75 h 25 v 4 h -25 z" />
      <path
         id="segment g3"
         style="fill:#0d0d0d;stroke:#080808;stroke-width:0"
         inkscape:label="segment g3"
         d="m 22,56.749458 h 15.999999 v 8 H 22 Z" />
      <path
         id="segment g6"
         style="fill:#0d0d0d;stroke:#080808;stroke-width:0"
         inkscape:label="segment g6"
         d="m 38,56.749458 h 3.000001 v 8 H 38 Z" />
      <path
         id="segment g5"
         style="fill:#0d0d0d;stroke:#080808;stroke-width:0"
         inkscape:label="segment g5"
         d="m 19,56.749458 h 3 v 8 h -3 z" />
      <path
         id="segment g7"
         style="fill:#1a1a1a;stroke:#080808;stroke-width:0"
         inkscape:label="segment g7"
         d="m 22,64 h 16 v 0.749458 H 22 Z" />
      <path
         id="segment g8"
         style="fill:#1a1a1a;stroke:#080808;stroke-width:0"
         inkscape:label="segment g8"
         d="m 21.990234,62.000542 h 16 v 0.999457 h -16 z" />
      <path
         id="segment g9"
         style="fill:#1a1a1a;stroke:#080808;stroke-width:0"
         inkscape:label="segment g9"
         d="m 22,60.001083 h 16 v 0.999458 H 22 Z" />
      <path
         id="segment g10"
         style="fill:#1a1a1a;stroke:#080808;stroke-width:0"
         inkscape:label="segment g10"
         d="m 22,58.001625 h 16 v 0.999458 H 22 Z" />
      <path
         id="segment g11"
         style="fill:#1a1a1a;stroke:#080808;stroke-width:0"
         inkscape:label="segment g11"
         d="M 22,56.75 H 38 V 57 H 22 Z" />
    </g>
  </g>
  <g
     inkscape:groupmode="layer"
     id="Segment F"
     inkscape:label="Segment F"
     style="display:none">
    <g
       inkscape:groupmode="layer"
       id="Segment F Closed"
       inkscape:label="Segment F Closed"
       style="display:none">
      <path
         id="segment f0"
         style="display:inline;fill:#000000;fill-opacity:1;stroke:none;stroke-width:0;stroke-dasharray:none;stroke-opacity:1"
         d="M 16,33.499795 V 67.000008 H 5 V 22.5 Z"
         inkscape:label="segment f0" />
      <path
         id="segment f1"
         style="fill:#f2f2f2;fill-opacity:1;stroke:none;stroke-width:0;stroke-dasharray:none;stroke-opacity:1"
         d="m 6,24.929687 v 41.050781 h 8.980468 V 33.910156 Z"
         inkscape:label="segment f1" />
    </g>
    <g
       inkscape:groupmode="layer"
       id="Segment F Open"
       inkscape:label="Segment F Open">
      <path
         id="segment f2"
         style="display:inline;fill:#0d0d0d;fill-opacity:1;stroke-width:0"
         d="M 0,22.5 H 3.999999 V 66.999998 H 0 Z"
         inkscape:label="segment f2" />
      <path
         id="segment f3"
         style="fill:#0d0d0d;stroke:#080808;stroke-width:0"
         inkscape:label="segment f3"
         d="m 4.000065,52.749997 3.48e-4,-16 8,1.73e-4 -3.48e-4,15.999999 z" />
      <path
         id="segment f6"
         style="fill:#0d0d0d;stroke:#080808;stroke-width:0"
         inkscape:label="segment f6"
         d="m 4.000413,36.749997 6.5e-5,-3.000001 8,1.73e-4 -6.5e-5,3.000001 z" />
      <path
         id="segment f5"
         style="fill:#0d0d0d;stroke:#080808;stroke-width:0"
         inkscape:label="segment f5"
         d="m 4,55.749997 6.5e-5,-3 8,1.72e-4 -6.5e-5,3 z" />
      <path
         id="segment f7"
         style="fill:#1a1a1a;stroke:#080808;stroke-width:0"
         inkscape:label="segment f7"
         d="m 11.250607,52.750154 3.48e-4,-16.000001 0.749458,1.6e-5 -3.48e-4,16 z" />
      <path
         id="segment f8"
         style="fill:#1a1a1a;stroke:#080808;stroke-width:0"
         inkscape:label="segment f8"
         d="m 9.251149,52.759877 3.48e-4,-16.000001 0.999457,2.1e-5 -3.48e-4,16.000001 z" />
      <path
         id="segment f9"
         style="fill:#1a1a1a;stroke:#080808;stroke-width:0"
         inkscape:label="segment f9"
         d="m 7.25169,52.750067 3.48e-4,-16.000001 0.999458,2.2e-5 -3.48e-4,16.000001 z" />
      <path
         id="segment f10"
         style="fill:#1a1a1a;stroke:#080808;stroke-width:0"
         inkscape:label="segment f10"
         d="m 5.252232,52.750024 3.48e-4,-16.000001 0.999458,2.2e-5 -3.48e-4,16 z" />
      <path
         id="segment f11"
         style="fill:#1a1a1a;stroke:#080808;stroke-width:0"
         inkscape:label="segment f11"
         d="m 4.000607,52.749997 3.48e-4,-16.000001 0.25,5e-6 -3.48e-4,16.000001 z" />
    </g>
  </g>
  <g
     inkscape:groupmode="layer"
     id="Segment E"
     inkscape:label="Segment E"
     style="display:none">
    <g
       inkscape:groupmode="layer"
       id="Segment E Closed"
       inkscape:label="Segment E Closed"
       style="display:none">
      <path
         id="segment e0"
         style="display:inline;fill:#000000;fill-opacity:1;stroke:none;stroke-width:0;stroke-dasharray:none;stroke-opacity:1"
         d="M 16,101.00022 V 67.499999 H 5 v 44.500011 z"
         inkscape:label="segment e0" />
      <path
         id="segment e1"
         style="display:inline;fill:#f2f2f2;fill-opacity:1;stroke:none;stroke-width:0;stroke-dasharray:none;stroke-opacity:1"
         d="m 6,68.5 v 41.05078 l 8.980468,-8.98047 V 68.5 Z"
         inkscape:label="segment e1" />
    </g>
    <g
       inkscape:groupmode="layer"
       id="Segment E Open"
       inkscape:label="Segment E Open">
      <path
         id="segment e2"
         style="display:inline;fill:#0d0d0d;fill-opacity:1;stroke-width:0"
         d="M 0,67.5 H 3.9999989 V 112 H 0 Z"
         inkscape:label="segment e2" />
      <path
         id="segment e3"
         style="fill:#0d0d0d;stroke:#080808;stroke-width:0"
         inkscape:label="segment e3"
         d="m 4.000065,97.749963 3.48e-4,-16 8,1.73e-4 -3.48e-4,15.999999 z" />
      <path
         id="segment e6"
         style="fill:#0d0d0d;stroke:#080808;stroke-width:0"
         inkscape:label="segment e6"
         d="m 4.000413,81.749963 6.5e-5,-3.000001 8,1.73e-4 -6.5e-5,3.000001 z" />
      <path
         id="segment e5"
         style="fill:#0d0d0d;stroke:#080808;stroke-width:0"
         inkscape:label="segment e5"
         d="m 4,100.74996 6.5e-5,-2.999997 8,1.72e-4 L 12,100.75013 Z" />
      <path
         id="segment e7"
         style="fill:#1a1a1a;stroke:#080808;stroke-width:0"
         inkscape:label="segment e7"
         d="m 11.250607,97.75012 3.48e-4,-16.000001 0.749458,1.6e-5 -3.48e-4,16 z" />
      <path
         id="segment e8"
         style="fill:#1a1a1a;stroke:#080808;stroke-width:0"
         inkscape:label="segment e8"
         d="m 9.251149,97.759843 3.48e-4,-16.000001 0.999457,2.1e-5 -3.48e-4,16.000001 z" />
      <path
         id="segment e9"
         style="fill:#1a1a1a;stroke:#080808;stroke-width:0"
         inkscape:label="segment e9"
         d="m 7.25169,97.750033 3.48e-4,-16.000001 0.999458,2.2e-5 -3.48e-4,16.000001 z" />
      <path
         id="segment e10"
         style="fill:#1a1a1a;stroke:#080808;stroke-width:0"
         inkscape:label="segment e10"
         d="m 5.252232,97.74999 3.48e-4,-16.000001 0.999458,2.2e-5 -3.48e-4,16 z" />
      <path
         id="segment e11"
         style="fill:#1a1a1a;stroke:#080808;stroke-width:0"
         inkscape:label="segment e11"
         d="m 4.000607,97.749963 3.48e-4,-16.000001 0.25,5e-6 -3.48e-4,16.000001 z" />
    </g>
  </g>
  <g
     inkscape:groupmode="layer"
     id="Segment D"
     inkscape:label="Segment D"
     style="display:none">
    <g
       inkscape:groupmode="layer"
       id="Segment D Closed"
       inkscape:label="Segment D Closed"
       style="display:none">
      <path
         id="segment d0"
         style="display:inline;fill:#000000;fill-opacity:1;stroke:none;stroke-width:0;stroke-dasharray:none;stroke-opacity:1"
         d="M 54.499994,112.50002 H 5.5 L 16.500001,101.5 h 26.999993 z"
         inkscape:label="segment d0" />
      <path
         id="segment d1"
         style="display:inline;fill:#f2f2f2;fill-opacity:1;stroke:none;stroke-width:0;stroke-dasharray:none;stroke-opacity:1"
         d="m 16.910156,102.5 -8.9804685,8.98046 H 52.050781 L 43.070312,102.5 Z"
         inkscape:label="segment d1" />
    </g>
    <g
       inkscape:groupmode="layer"
       id="Segment D Open"
       inkscape:label="Segment D Open">
      <rect
         style="display:inline;fill:#0d0d0d;fill-opacity:1;stroke:#080808;stroke-width:0"
         id="segment d2"
         width="49"
         height="4"
         x="5.5"
         y="113.5"
         inkscape:label="segment d2" />
      <path
         id="segment d3"
         style="display:inline;fill:#0d0d0d;stroke:#080808;stroke-width:0"
         inkscape:label="segment d3"
         d="m 22.000236,105.49896 15.999999,9.5e-4 -4.75e-4,8 -15.999998,-9.5e-4 z" />
      <path
         id="segment d6"
         style="display:inline;fill:#0d0d0d;stroke:#080808;stroke-width:0"
         inkscape:label="segment d6"
         d="m 38.000235,105.49991 3.000001,1.8e-4 -4.75e-4,8 -3.000001,-1.8e-4 z" />
      <path
         id="segment d5"
         style="display:inline;fill:#0d0d0d;stroke:#080808;stroke-width:0"
         inkscape:label="segment d5"
         d="m 19.000236,105.49878 3,1.8e-4 -4.74e-4,8 -3,-1.8e-4 z" />
      <path
         id="segment d7"
         style="display:inline;fill:#1a1a1a;stroke:#080808;stroke-width:0"
         inkscape:label="segment d7"
         d="m 21.999804,112.7495 16.000001,9.5e-4 -4.4e-5,0.74946 -16,-9.5e-4 z" />
      <path
         id="segment d8"
         style="display:inline;fill:#1a1a1a;stroke:#080808;stroke-width:0"
         inkscape:label="segment d8"
         d="m 21.990158,110.75005 16,9.5e-4 -5.9e-5,0.99945 -16,-9.5e-4 z" />
      <path
         id="segment d9"
         style="display:inline;fill:#1a1a1a;stroke:#080808;stroke-width:0"
         inkscape:label="segment d9"
         d="m 22.000043,108.75059 16,9.5e-4 -6e-5,0.99945 -16,-9.4e-4 z" />
      <path
         id="segment d10"
         style="display:inline;fill:#1a1a1a;stroke:#080808;stroke-width:0"
         inkscape:label="segment d10"
         d="m 22.000162,106.75113 16.000001,9.5e-4 -6e-5,0.99946 -16,-9.5e-4 z" />
      <path
         id="segment d11"
         style="display:inline;fill:#1a1a1a;stroke:#080808;stroke-width:0"
         inkscape:label="segment d11"
         d="m 22.000236,105.4995 16,9.5e-4 -1.5e-5,0.25 -16.000001,-9.5e-4 z" />
    </g>
  </g>
  <g
     inkscape:groupmode="layer"
     id="Segment C"
     inkscape:label="Segment C"
     style="display:none">
    <g
       inkscape:groupmode="layer"
       id="Segment C Closed"
       inkscape:label="Segment C Closed"
       style="display:none">
      <path
         id="segment c0"
         style="display:inline;fill:#000000;fill-opacity:1;stroke:none;stroke-width:0;stroke-dasharray:none;stroke-opacity:1"
         d="M 44,101.00021 V 67.5 H 55 V 112 Z"
         inkscape:label="segment c0" />
      <path
         id="segment c1"
         style="display:inline;fill:#f2f2f2;fill-opacity:1;stroke:none;stroke-width:0;stroke-dasharray:none;stroke-opacity:1"
         d="m 45,68.5 v 32.07031 l 8.980468,8.98047 V 68.5 Z"
         inkscape:label="segment c1" />
    </g>
    <g
       inkscape:groupmode="layer"
       id="Segment C Open"
       inkscape:label="Segment C Open">
      <path
         id="segment c2"
         style="display:inline;fill:#0d0d0d;fill-opacity:1;stroke-width:0"
         d="m 56,67.5 h 4 V 112 h -4 z"
         inkscape:label="segment c2" />
      <path
         id="segment c3"
         style="display:inline;fill:#0d0d0d;stroke:#080808;stroke-width:0"
         inkscape:label="segment c3"
         d="m 56.000066,81.749961 3.46e-4,15.999999 -7.999998,1.75e-4 -3.5e-4,-15.999998 z" />
      <path
         id="segment c6"
         style="display:inline;fill:#0d0d0d;stroke:#080808;stroke-width:0"
         inkscape:label="segment c6"
         d="m 56.000412,97.74996 6.6e-5,3 -8,1.8e-4 -6.4e-5,-3.000005 z" />
      <path
         id="segment c5"
         style="display:inline;fill:#0d0d0d;stroke:#080808;stroke-width:0"
         inkscape:label="segment c5"
         d="m 56,78.749961 6.6e-5,3 -8.000002,1.76e-4 -6.4e-5,-3 z" />
      <path
         id="segment c7"
         style="display:inline;fill:#1a1a1a;stroke:#080808;stroke-width:0"
         inkscape:label="segment c7"
         d="m 48.749524,81.750118 3.5e-4,16.000001 -0.74946,1.7e-5 -3.5e-4,-16 z" />
      <path
         id="segment c8"
         style="display:inline;fill:#1a1a1a;stroke:#080808;stroke-width:0"
         inkscape:label="segment c8"
         d="m 50.748973,81.74031 3.5e-4,16 -0.99945,2.2e-5 -3.5e-4,-16 z" />
      <path
         id="segment c9"
         style="display:inline;fill:#1a1a1a;stroke:#080808;stroke-width:0"
         inkscape:label="segment c9"
         d="m 52.748434,81.750032 3.5e-4,16 -0.99945,2.1e-5 -3.6e-4,-16 z" />
      <path
         id="segment c10"
         style="display:inline;fill:#1a1a1a;stroke:#080808;stroke-width:0"
         inkscape:label="segment c10"
         d="m 54.747896,81.749989 3.46e-4,16.000001 -0.99946,2.1e-5 -3.46e-4,-16 z" />
      <path
         id="segment c11"
         style="display:inline;fill:#1a1a1a;stroke:#080808;stroke-width:0"
         inkscape:label="segment c11"
         d="m 55.999526,81.749961 3.46e-4,16 -0.25,5e-6 -3.46e-4,-16.000001 z" />
    </g>
  </g>
  <g
     inkscape:groupmode="layer"
     id="Segment B"
     inkscape:label="Segment B"
     style="display:none">
    <g
       inkscape:groupmode="layer"
       id="Segment B Closed"
       inkscape:label="Segment B Closed"
       style="display:none">
      <path
         id="segment b0"
         style="display:inline;fill:#000000;fill-opacity:1;stroke:none;stroke-width:0;stroke-dasharray:none;stroke-opacity:1"
         d="M 44,33.499791 V 67.000015 H 55 V 22.5 Z"
         inkscape:label="segment b0" />
      <path
         id="segment b1"
         style="display:inline;fill:#f2f2f2;fill-opacity:1;stroke:none;stroke-width:0;stroke-dasharray:none;stroke-opacity:1"
         d="M 53.980468,24.929687 45,33.910156 v 32.070312 h 8.980468 z"
         inkscape:label="segment b1" />
    </g>
    <g
       inkscape:groupmode="layer"
       id="Segment B Open"
       inkscape:label="Segment B Open"
       style="display:inline">
      <path
         id="segment b2"
         style="display:inline;fill:#0d0d0d;fill-opacity:1;stroke-width:0"
         d="m 56,22.5 h 4 V 67 h -4 z"
         inkscape:label="segment b2" />
      <path
         id="segment b3"
         style="display:inline;fill:#0d0d0d;stroke:#080808;stroke-width:0"
         inkscape:label="segment b3"
         d="m 56.000066,36.749996 3.46e-4,15.999999 -7.999998,1.75e-4 -3.5e-4,-15.999998 z" />
      <path
         id="segment b6"
         style="display:inline;fill:#0d0d0d;stroke:#080808;stroke-width:0"
         inkscape:label="segment b6"
         d="m 56.000412,52.749995 6.6e-5,3.000001 -8,1.75e-4 -6.4e-5,-3.000001 z" />
      <path
         id="segment b5"
         style="display:inline;fill:#0d0d0d;stroke:#080808;stroke-width:0"
         inkscape:label="segment b5"
         d="m 56,33.749996 6.6e-5,3 -8.000002,1.76e-4 -6.4e-5,-3 z" />
      <path
         id="segment b7"
         style="display:inline;fill:#1a1a1a;stroke:#080808;stroke-width:0"
         inkscape:label="segment b7"
         d="m 48.749524,36.750153 3.5e-4,16.000001 -0.74946,1.7e-5 -3.5e-4,-16 z" />
      <path
         id="segment b8"
         style="display:inline;fill:#1a1a1a;stroke:#080808;stroke-width:0"
         inkscape:label="segment b8"
         d="m 50.748973,36.740345 3.5e-4,16 -0.99945,2.2e-5 -3.5e-4,-16 z" />
      <path
         id="segment b9"
         style="display:inline;fill:#1a1a1a;stroke:#080808;stroke-width:0"
         inkscape:label="segment b9"
         d="m 52.748434,36.750067 3.5e-4,16 -0.99945,2.1e-5 -3.6e-4,-16 z" />
      <path
         id="segment b10"
         style="display:inline;fill:#1a1a1a;stroke:#080808;stroke-width:0"
         inkscape:label="segment b10"
         d="m 54.747896,36.750024 3.46e-4,16.000001 -0.99946,2.1e-5 -3.46e-4,-16 z" />
      <path
         id="segment b11"
         style="display:inline;fill:#1a1a1a;stroke:#080808;stroke-width:0"
         inkscape:label="segment b11"
         d="m 55.999526,36.749996 3.46e-4,16 -0.25,5e-6 L 55.749526,36.75 Z" />
    </g>
  </g>
  <g
     inkscape:groupmode="layer"
     id="Segment A"
     inkscape:label="Segment A"
     style="display:none">
    <g
       inkscape:groupmode="layer"
       id="Segment A Closed"
       inkscape:label="Segment A Closed"
       style="display:none">
      <path
         id="segment a0"
         style="display:inline;fill:#000000;fill-opacity:1;stroke:none;stroke-width:0;stroke-linejoin:miter;stroke-miterlimit:4;stroke-dasharray:none;stroke-opacity:1;paint-order:normal"
         d="m 5.5,22 h 49.000003 l -11,11.000001 H 16.5 Z"
         inkscape:label="segment a0" />
      <path
         id="segment a1"
         style="display:inline;fill:#f2f2f2;fill-opacity:1;stroke:none;stroke-width:0;stroke-linejoin:miter;stroke-miterlimit:4;stroke-dasharray:none;stroke-opacity:1;paint-order:normal"
         d="m 7.9296875,23 8.9804685,8.980468 H 43.070312 L 52.050781,23 Z"
         inkscape:label="segment a1" />
    </g>
    <g
       inkscape:groupmode="layer"
       id="Segment A Open"
       inkscape:label="Segment A Open"
       style="display:inline">
      <rect
         style="display:inline;fill:#0d0d0d;fill-opacity:1;stroke:#080808;stroke-width:0"
         id="segment a2"
         width="49"
         height="4"
         x="5.5"
         y="17"
         inkscape:label="segment a2" />
      <path
         id="segment a3"
         style="display:inline;fill:#0d0d0d;stroke:#080808;stroke-width:0"
         inkscape:label="segment a3"
         d="m 22.000239,21.00018 15.999998,9.62e-4 -4.79e-4,7.999998 -15.999997,-9.58e-4 z" />
      <path
         id="segment a6"
         style="display:inline;fill:#0d0d0d;stroke:#080808;stroke-width:0"
         inkscape:label="segment a6"
         d="m 38.000237,21.001142 3.000001,1.79e-4 -4.79e-4,8 -3.000001,-1.81e-4 z" />
      <path
         id="segment a5"
         style="display:inline;fill:#0d0d0d;stroke:#080808;stroke-width:0"
         inkscape:label="segment a5"
         d="m 19.000239,21 3,1.8e-4 -4.78e-4,8.000002 -3,-1.82e-4 z" />
      <path
         id="segment a7"
         style="display:inline;fill:#1a1a1a;stroke:#080808;stroke-width:0"
         inkscape:label="segment a7"
         d="m 21.999803,28.250722 16.000001,9.58e-4 -4.5e-5,0.74946 -15.999999,-9.58e-4 z" />
      <path
         id="segment a8"
         style="display:inline;fill:#1a1a1a;stroke:#080808;stroke-width:0"
         inkscape:label="segment a8"
         d="m 21.990158,26.251272 16,9.58e-4 -6e-5,0.99945 -15.999999,-9.58e-4 z" />
      <path
         id="segment a9"
         style="display:inline;fill:#1a1a1a;stroke:#080808;stroke-width:0"
         inkscape:label="segment a9"
         d="m 22.000044,24.251812 16,9.58e-4 -6.1e-5,0.99945 -16,-9.48e-4 z" />
      <path
         id="segment a10"
         style="display:inline;fill:#1a1a1a;stroke:#080808;stroke-width:0"
         inkscape:label="segment a10"
         d="m 22.000164,22.25235 16.000001,9.62e-4 -6.1e-5,0.99946 -16,-9.62e-4 z" />
      <path
         id="segment a11"
         style="display:inline;fill:#1a1a1a;stroke:#080808;stroke-width:0"
         inkscape:label="segment a11"
         d="m 22.000239,21.00072 15.999999,9.62e-4 -1.5e-5,0.25 -16.000001,-9.62e-4 z" />
    </g>
  </g>
</svg>
